<svg version="1.1" id="Layer_1" x="0px" y="0px" width="100%" viewBox="0 0 512 512" enable-background="new 0 0 512 512" xmlns="http://www.w3.org/2000/svg">
  <defs></defs>
  <rect y="0" width="512" height="512" style="fill: #EFECF3" rx="100" ry="100"></rect>
  <path fill="#31204A" opacity="1.000000" stroke="none" d="
M87.594147,241.487259 
	C74.132492,218.407776 66.984802,193.116364 62.721889,167.057312 
	C59.376934,146.609711 59.917751,125.890419 61.712925,105.252136 
	C61.813698,104.093582 61.779308,102.790894 62.310200,101.834007 
	C63.055763,100.490211 64.272453,99.407799 65.287651,98.213600 
	C66.464249,99.219940 68.214203,100.001404 68.713127,101.273529 
	C70.411354,105.603477 71.589218,110.133904 73.114014,114.536430 
	C74.987892,119.946899 77.010773,125.305756 79.166794,131.229706 
	C79.166794,123.875664 79.162514,117.332458 79.168961,110.789268 
	C79.171425,108.290375 78.895111,105.741402 79.297165,103.306290 
	C79.723381,100.724777 80.804764,98.251442 81.600006,95.730858 
	C83.306808,97.908104 85.410568,99.886955 86.622337,102.311600 
	C88.222923,105.514252 89.124397,109.066307 91.071678,112.405891 
	C91.355057,108.065292 91.413383,103.692162 92.033638,99.400246 
	C92.278496,97.705940 93.775368,96.192581 94.702148,94.596825 
	C96.110001,95.790749 98.071922,96.712395 98.818344,98.231346 
	C100.794189,102.252174 102.193214,106.552559 103.914612,110.703201 
	C106.853065,117.788460 111.633949,123.391312 117.502884,128.306595 
	C125.441620,134.955368 134.350769,135.523483 143.885132,133.504333 
	C148.645218,132.496246 150.636673,128.803696 151.914062,124.762886 
	C155.023621,114.926407 157.856445,105.002800 160.853958,95.130447 
	C165.833679,78.729721 170.784607,62.319370 175.951309,45.977463 
	C176.572769,44.011848 178.458817,42.446049 179.758728,40.694935 
	C181.448608,42.094517 183.832977,43.150928 184.720490,44.947002 
	C193.200592,62.108135 201.141922,79.540192 209.844315,96.584869 
	C214.372986,105.454826 220.056168,113.742058 225.332794,122.220978 
	C228.698822,127.629776 233.508011,131.064056 240.038605,131.225235 
	C255.506058,131.606964 270.977783,131.820969 286.448334,132.068039 
	C290.092316,132.126221 291.844543,129.786407 292.641815,126.633484 
	C299.041504,101.324997 305.365082,75.997192 311.822418,50.703491 
	C312.346069,48.652367 313.691071,46.810940 314.654449,44.872074 
	C316.444763,46.134094 318.906982,47.001293 319.917755,48.721394 
	C327.169128,61.061512 333.982666,73.658546 341.211700,86.012207 
	C350.290131,101.526161 359.420227,117.018173 368.939331,132.262817 
	C374.729950,141.536407 383.607330,145.278275 394.548889,144.479691 
	C404.109650,143.781891 409.771759,138.285080 412.854279,129.843536 
	C414.499329,125.338486 415.143036,120.476509 416.529877,115.863167 
	C416.951294,114.461243 418.344940,113.351578 419.293274,112.108063 
	C420.383759,113.387772 422.265106,114.572731 422.431671,115.963135 
	C423.281067,123.052612 423.728607,130.192307 424.224121,137.320877 
	C424.380005,139.563782 424.248444,141.826660 424.248444,144.080399 
	C424.729279,144.206299 425.210144,144.332184 425.690979,144.458084 
	C428.064575,135.952713 430.328308,127.414177 432.880371,118.962708 
	C433.621002,116.510017 435.187286,114.306656 436.375092,111.988998 
	C437.497803,114.527870 439.480988,117.030800 439.588806,119.612061 
	C439.980194,128.982910 439.743195,138.380020 439.743195,148.565842 
	C440.720245,147.368134 441.694489,146.590805 442.120575,145.581955 
	C444.384338,140.221939 446.424011,134.766190 448.746552,129.432953 
	C449.314178,128.129486 450.652588,127.161674 451.636627,126.039551 
	C452.283966,127.539413 453.708313,129.185135 453.458374,130.516541 
	C450.975098,143.745407 448.711975,157.047577 445.424713,170.086533 
	C439.499207,193.590485 430.259460,215.876724 418.765015,237.710526 
	C418.708496,238.287674 418.811127,238.447571 418.913757,238.607468 
	C418.910187,238.385361 418.906616,238.163269 418.903015,237.941162 
	C420.588806,237.585785 422.370270,237.469040 423.945251,236.837463 
	C437.152100,231.541336 450.771820,231.103409 464.767487,233.873016 
	C462.888794,234.245941 461.025269,234.746628 459.129059,234.971390 
	C445.173950,236.625504 431.559387,239.481247 418.603821,245.210953 
	C413.732239,247.365448 409.695587,250.070770 406.745697,254.611923 
	C404.242035,258.466217 401.189545,261.963989 397.888306,266.259155 
	C426.376068,260.958191 454.287018,256.224091 482.234619,265.420715 
	C482.923981,265.647552 483.490906,266.246521 483.995575,267.972717 
	C481.689575,267.972717 479.342438,268.256775 477.083862,267.929535 
	C449.433411,263.923248 422.380402,266.901520 395.544312,274.119476 
	C387.178375,276.369629 381.489288,281.843994 374.624176,287.879395 
	C399.452850,286.653748 423.411835,284.857300 446.835785,292.053162 
	C433.739349,292.053162 420.629517,291.683838 407.550293,292.158234 
	C394.760498,292.622101 381.977722,293.714172 369.244904,295.040009 
	C365.608063,295.418732 362.047760,297.341400 358.637604,298.949036 
	C343.464600,306.102051 328.358826,313.397644 313.190460,320.660065 
	C322.215363,345.174377 331.562592,370.952606 341.273590,396.593018 
	C343.075165,401.349762 346.018097,405.783844 349.007111,409.956482 
	C353.933563,416.833710 359.955719,416.989655 366.471588,411.544250 
	C379.369904,400.764984 385.094513,385.768677 390.380768,370.711212 
	C396.314331,353.809906 406.993073,341.351562 422.426331,332.674591 
	C441.927979,321.710327 458.065582,324.500763 471.834351,342.003815 
	C477.147095,348.757477 481.732727,356.232605 485.678589,363.880035 
	C493.198914,378.455139 492.497589,393.866364 488.150818,409.167450 
	C485.709351,417.761627 480.327545,424.695648 472.881744,429.573029 
	C466.504883,433.750153 459.272491,435.920624 452.200409,431.413544 
	C445.253418,426.986145 443.830017,419.696716 444.474976,412.038391 
	C444.837006,407.739594 445.891388,403.501251 446.586273,399.227966 
	C448.673523,386.392273 443.201508,374.433197 432.806274,369.055054 
	C426.415253,365.748566 420.552582,367.368103 416.220734,373.204620 
	C409.638153,382.073639 408.340271,392.459015 407.210876,402.930634 
	C406.835754,406.408569 406.320679,409.889832 406.239624,413.378143 
	C405.690857,436.981201 391.789856,449.634277 371.123566,457.332642 
	C344.754456,467.155426 317.381226,471.342621 289.488190,472.378021 
	C252.145355,473.764160 214.870026,472.639587 177.977951,466.083984 
	C163.461929,463.504547 157.208649,456.096252 158.055496,441.422546 
	C158.731125,429.715790 160.295685,417.801056 163.484283,406.550781 
	C170.845276,380.579041 180.383759,355.329346 193.226013,331.470306 
	C195.321396,327.577362 197.893295,323.940887 199.595459,321.222992 
	C185.246918,316.501007 170.538406,312.328949 156.379410,306.759796 
	C147.333008,303.201599 139.123917,297.531281 130.488968,292.902008 
	C127.021912,291.043304 123.573204,288.934357 119.853806,287.797668 
	C96.874847,280.775024 73.134842,281.369995 49.489346,281.227661 
	C46.114799,281.207336 42.737278,281.681152 39.333397,280.963348 
	C64.816132,273.298248 90.169907,276.522858 115.458702,281.453491 
	C115.158333,278.432190 111.643013,274.466614 107.213135,271.883484 
	C94.172096,264.279053 79.905998,261.453369 65.063393,261.175171 
	C52.242638,260.934875 39.413815,261.125305 26.591167,260.443451 
	C50.700481,254.120804 74.782433,253.749573 98.827820,261.157257 
	C99.145943,260.774597 99.464073,260.391937 99.782196,260.009277 
	C96.560555,256.736450 93.920532,252.205490 90.019585,250.402145 
	C69.976357,241.136475 49.609024,232.571899 28.189695,223.255661 
	C34.836124,224.531708 40.697174,224.942871 46.041313,226.823181 
	C59.531296,231.569519 72.788605,236.977158 86.616455,242.354492 
	C87.260559,242.221863 87.427353,241.854553 87.594147,241.487259 
M159.061600,162.793198 
	C158.916794,162.774353 158.772003,162.755508 158.627197,162.736649 
	C158.739243,162.838547 158.851303,162.940445 159.048615,163.718460 
	C162.667221,167.369553 166.285812,171.020645 170.658768,175.432861 
	C170.725723,169.529984 165.155884,164.459778 159.061600,162.793198 
M179.532288,269.426544 
	C182.009018,269.953400 184.485764,270.480286 187.546890,271.456909 
	C194.133698,273.131134 200.720490,274.805328 208.608643,276.810333 
	C206.811050,270.709137 205.513031,266.303589 204.150146,261.168427 
	C198.283371,251.977982 192.416595,242.787521 186.341324,233.094849 
	C184.258301,230.497192 182.175262,227.899521 180.092239,225.301865 
	C182.353348,239.420593 181.167603,252.685883 176.712418,265.687378 
	C175.863312,268.165344 176.276993,269.156891 179.532288,269.426544 
M311.488159,230.387314 
	C303.038574,237.677475 298.118347,247.432281 292.374725,257.387543 
	C290.203705,261.334381 288.032684,265.281250 285.661194,269.592560 
	C293.199554,271.157532 299.699585,272.105133 306.847229,268.986359 
	C310.218414,268.216156 313.589569,267.445953 317.735413,266.746460 
	C321.099060,266.494385 319.843597,264.351257 319.645966,262.421783 
	C318.690125,253.090500 317.717957,243.756363 317.061798,234.401489 
	C316.852936,231.423676 317.600159,228.378784 317.909882,225.364578 
	C317.597870,225.202881 317.285828,225.041183 316.973816,224.879486 
	C315.342926,226.615662 313.712036,228.351837 311.488159,230.387314 
M345.134308,258.214294 
	C345.134308,258.214294 345.212402,258.278381 345.959503,258.261505 
	C363.737946,252.552933 375.739929,239.516800 387.246063,225.811234 
	C393.324890,218.570389 397.629059,210.425354 400.230743,201.368835 
	C402.460632,193.606522 402.126160,185.801529 400.960266,176.777512 
	C394.053955,179.789932 388.027588,182.418549 381.253265,185.118820 
	C370.199615,190.026855 358.992615,194.624695 348.159424,199.978836 
	C343.039978,202.509048 338.636505,206.487961 333.221283,210.172455 
	C332.986725,211.829102 332.415741,213.518967 332.575470,215.136673 
	C333.289154,222.365067 334.893921,229.573990 334.882324,236.787842 
	C334.868347,245.459305 333.542816,254.128632 332.767883,262.996429 
	C333.464478,262.729523 334.328979,262.398285 335.926636,262.022308 
	C338.627197,260.979950 341.327759,259.937622 344.548950,258.893768 
	C344.776459,258.658051 345.003967,258.422333 345.134308,258.214294 
M164.120316,209.172272 
	C157.916885,203.975677 151.898209,198.536255 145.465149,193.641464 
	C136.612473,186.905655 126.973839,181.526657 115.508858,178.353607 
	C108.504547,176.394196 101.500237,174.434784 94.373856,172.441223 
	C91.345406,208.862305 112.418045,245.039978 154.648727,261.339966 
	C157.396362,262.290771 160.143982,263.241577 163.466034,264.673248 
	C164.237885,263.973450 165.770004,263.134460 165.671082,262.594055 
	C162.733139,246.542801 164.829498,230.680206 167.006805,214.778885 
	C167.217346,213.241180 165.388062,211.424194 164.120316,209.172272 
M172.327560,124.930313 
	C171.348297,129.790680 170.369034,134.651062 169.166107,140.621582 
	C179.730927,140.621582 189.833603,140.724380 199.926697,140.460739 
	C200.923355,140.434692 202.825058,138.006668 202.653351,136.966431 
	C202.038437,133.241318 201.099289,129.462769 199.578094,126.015343 
	C195.820679,117.499977 191.694138,109.146675 187.669937,100.750282 
	C186.418701,98.139626 185.019943,95.599670 183.302063,92.280220 
	C176.872452,102.665672 175.649063,113.720154 172.327560,124.930313 
M346.106262,140.652328 
	C345.717407,139.054474 345.621521,137.306946 344.893616,135.882309 
	C338.781403,123.918823 332.546631,112.017998 326.370605,100.087013 
	C325.758514,98.904518 325.292206,97.646553 324.758240,96.423615 
	C324.131714,96.825592 323.505219,97.227562 322.878693,97.629539 
	C322.237213,99.449097 321.187103,101.232109 321.020569,103.094147 
	C319.943207,115.140511 318.973145,127.199150 318.272339,139.271439 
	C318.216064,140.240677 320.451904,142.241882 321.618195,142.238510 
	C329.685852,142.215271 337.752350,141.787354 346.106262,140.652328 
M255.478912,269.876587 
	C260.906891,264.107391 262.736420,272.379913 266.565582,272.787598 
	C269.080963,267.887421 267.664886,262.701874 263.041016,262.092743 
	C256.830414,261.274597 250.449493,261.073822 244.196976,261.473297 
	C239.565216,261.769226 237.296127,264.506897 236.678192,268.230042 
	C242.998413,265.576050 243.439850,265.820160 245.719345,272.513794 
	C246.596634,275.089966 247.712219,277.584961 249.151154,281.202972 
	C251.536240,276.807922 253.263184,273.625671 255.478912,269.876587 
M180.403915,286.022400 
	C188.581970,287.846832 196.536835,291.352539 205.239227,289.672363 
	C184.534866,282.296936 163.955139,274.965881 143.375412,267.634857 
	C154.024521,276.906860 166.111542,282.863861 180.403915,286.022400 
M366.449646,260.087921 
	C365.311462,260.909424 364.173279,261.730927 362.621948,262.850647 
	C377.025787,262.794922 409.803131,228.907822 407.149506,216.632278 
	C397.877289,235.231506 382.392639,247.384125 366.449646,260.087921 
M113.186951,249.317978 
	C115.748032,251.650543 118.309113,253.983109 120.870186,256.315674 
	C121.208717,255.945572 121.547249,255.575470 121.885788,255.205368 
	C115.954224,245.496246 108.402466,237.218216 100.172035,229.539627 
	C99.656227,229.976074 99.140427,230.412521 98.624619,230.848969 
	C103.322083,236.827820 108.019554,242.806656 113.186951,249.317978 
M315.024384,203.699341 
	C320.986542,197.381149 326.264191,190.550247 331.024841,183.323151 
	C321.277832,188.345947 314.996918,196.362381 310.715729,206.461823 
	C311.972412,205.709747 313.229095,204.957657 315.024384,203.699341 
M189.792084,207.735214 
	C191.133057,209.701859 192.474030,211.668518 194.313400,214.366119 
	C194.101990,204.051300 186.834488,191.930511 180.776489,191.364670 
	C183.713715,196.761765 186.541260,201.957336 189.792084,207.735214 
M229.279022,361.109863 
	C231.016068,363.691498 232.753128,366.273102 234.490173,368.854706 
	C235.140320,368.513855 235.790466,368.172974 236.440628,367.832092 
	C233.700348,360.589203 230.960083,353.346313 228.219803,346.103424 
	C227.445419,346.327454 226.671036,346.551514 225.896637,346.775543 
	C226.923721,351.319885 227.950806,355.864258 229.279022,361.109863 
M265.640869,362.116791 
	C265.855774,362.591461 266.070648,363.066162 266.285553,363.540833 
	C271.203796,361.302277 275.949219,349.865997 274.108032,344.353668 
	C269.587372,349.283203 266.530609,354.787323 265.640869,362.116791 
M331.863892,273.278320 
	C327.554077,275.180695 323.244263,277.083038 318.934448,278.985413 
	C319.138245,279.427338 319.342041,279.869293 319.545837,280.311249 
	C328.072632,278.626160 336.609406,276.968811 343.986481,272.079987 
	C343.837891,271.575134 343.689270,271.070251 343.540680,270.565399 
	C339.902985,271.394531 336.265320,272.223663 331.863892,273.278320 
M258.087738,358.584900 
	C256.813446,363.503387 255.539139,368.421844 254.264832,373.340332 
	C254.751709,373.447723 255.238571,373.555115 255.725449,373.662506 
	C259.580811,366.474823 263.565216,359.320740 261.972412,349.592102 
	C260.490601,353.017548 259.440643,355.444733 258.087738,358.584900 
M267.083923,172.907974 
	C267.083923,170.670883 267.083923,168.433792 267.083923,166.196701 
	C266.473511,166.068939 265.863129,165.941177 265.252716,165.813400 
	C263.349060,172.539978 261.445404,179.266541 259.541748,185.993103 
	C260.001770,186.148987 260.461792,186.304886 260.921783,186.460770 
	C265.013519,183.264267 266.404327,178.689941 267.083923,172.907974 
M245.174042,361.323303 
	C244.117126,359.292114 243.060211,357.260895 242.003296,355.229706 
	C240.718292,363.348511 241.991974,370.357513 249.220093,375.258636 
	C247.981445,370.847137 246.742798,366.435608 245.174042,361.323303 
M259.513947,217.835907 
	C259.881287,212.180481 260.248657,206.525055 260.615997,200.869614 
	C260.141449,200.838791 259.666901,200.807968 259.192352,200.777145 
	C255.289642,207.798660 254.784454,215.316666 258.004822,221.932022 
	C258.507080,220.620178 258.895477,219.605637 259.513947,217.835907 
M243.700043,194.566818 
	C244.012329,198.118347 244.324631,201.669876 244.722076,206.189941 
	C248.988434,198.828522 248.973450,190.656494 244.911423,183.373184 
	C244.466553,187.239792 244.093246,190.484360 243.700043,194.566818 
M160.096176,177.832687 
	C159.688507,178.118301 159.280853,178.403900 158.873184,178.689514 
	C163.395187,183.756424 167.917175,188.823318 172.439178,193.890213 
	C172.794556,193.566681 173.149933,193.243149 173.505325,192.919632 
	C171.753479,185.867111 166.549118,181.726044 160.096176,177.832687 
M328.838104,176.415314 
	C331.701691,173.223923 334.565277,170.032532 337.428833,166.841125 
	C336.871399,166.320145 336.313934,165.799164 335.756470,165.278183 
	C331.043762,169.875244 326.331055,174.472321 321.618347,179.069382 
	C322.075958,179.611496 322.533569,180.153610 322.991150,180.695709 
	C324.764191,179.432968 326.537262,178.170227 328.838104,176.415314 
M243.879242,230.531036 
	C244.503693,232.383011 245.128143,234.235001 245.752594,236.086975 
	C246.413239,235.934860 247.073883,235.782745 247.734528,235.630630 
	C247.002991,230.209427 246.271454,224.788223 245.539917,219.367020 
	C244.923462,219.419022 244.307007,219.471008 243.690552,219.523010 
	C243.690552,222.918594 243.690552,226.314194 243.879242,230.531036 
M233.522446,222.814056 
	C234.145889,223.834503 234.769333,224.854950 235.829453,226.590118 
	C237.016769,219.533035 235.432312,214.198303 232.110703,209.344849 
	C231.562576,209.480469 231.014465,209.616089 230.466339,209.751709 
	C231.366409,213.880341 232.266495,218.008987 233.522446,222.814056 
M139.217331,279.392029 
	C134.929184,275.338257 130.641037,271.284485 126.352905,267.230743 
	C125.760231,267.901520 125.167557,268.572327 124.574883,269.243134 
	C129.196045,273.229309 133.814575,277.218597 138.485611,281.145477 
	C138.522018,281.176086 139.272919,280.356812 139.217331,279.392029 
M460.334442,398.305328 
	C460.527832,400.309387 460.721252,402.313446 460.914642,404.317474 
	C464.390686,397.834900 463.345978,391.706360 459.635437,385.732849 
	C459.829926,389.624847 460.024414,393.516815 460.334442,398.305328 
M251.568237,160.922668 
	C251.796173,157.498337 252.024109,154.074005 252.252045,150.649673 
	C251.525925,150.578751 250.799805,150.507843 250.073669,150.436920 
	C249.200989,156.030792 248.328308,161.624664 247.455627,167.218536 
	C248.106644,167.348816 248.757660,167.479080 249.408676,167.609360 
	C250.058670,165.644684 250.708679,163.680023 251.568237,160.922668 
M467.601318,376.953918 
	C466.206299,374.838013 464.811279,372.722107 463.416229,370.606232 
	C463.075958,370.853302 462.735657,371.100372 462.395386,371.347443 
	C464.830322,377.166260 467.265228,382.985077 469.700165,388.803894 
	C470.118164,388.662476 470.536133,388.521057 470.954132,388.379639 
	C469.950256,384.795319 468.946381,381.210968 467.601318,376.953918 
M358.512970,277.119446 
	C359.916290,276.044312 361.319611,274.969177 362.722931,273.894012 
	C362.457825,273.470276 362.192688,273.046539 361.927582,272.622803 
	C356.691010,274.998474 351.454437,277.374115 346.217865,279.749756 
	C346.466095,280.347168 346.714325,280.944550 346.962585,281.541962 
	C350.598389,280.188080 354.234192,278.834229 358.512970,277.119446 
M232.114380,172.395020 
	C232.342850,177.623108 232.571320,182.851196 232.799789,188.079300 
	C233.765854,187.951004 234.731918,187.822708 235.697983,187.694412 
	C234.670364,182.720978 233.642731,177.747543 232.114380,172.395020 
M355.589966,169.902328 
	C353.039368,172.374985 350.488770,174.847641 347.938171,177.320282 
	C348.417938,177.806381 348.897705,178.292480 349.377502,178.778580 
	C352.721191,175.865906 356.064911,172.953247 359.408600,170.040573 
	C359.191956,169.693146 358.975311,169.345718 358.758636,168.998276 
	C357.903687,169.162384 357.048737,169.326477 355.589966,169.902328 
M267.541351,146.045120 
	C267.140900,147.973251 266.740448,149.901382 266.339966,151.829514 
	C266.975525,151.981567 267.611115,152.133621 268.246674,152.285690 
	C269.399536,148.622742 270.552399,144.959808 271.705261,141.296860 
	C271.159790,141.096069 270.614349,140.895279 270.068878,140.694489 
	C269.307648,142.244278 268.546417,143.794052 267.541351,146.045120 
M362.474487,264.493866 
	C362.474487,264.493866 362.511932,264.497528 362.474487,264.493866 
M317.494781,280.524536 
	C317.494781,280.524536 317.497192,280.487610 317.494781,280.524536 
M141.493759,282.525482 
	C141.493759,282.525482 141.497467,282.488068 141.493759,282.525482 
z"></path>
  <path fill="#F4C101" opacity="1.000000" stroke="none" d="
M162.891617,264.192383 
	C160.143982,263.241577 157.396362,262.290771 154.300842,260.789825 
	C151.355972,257.033508 148.711716,253.864334 146.170456,250.614594 
	C136.438797,238.169815 127.109161,225.499786 123.392494,209.696854 
	C120.971809,199.404343 118.488876,189.126480 116.033829,178.842056 
	C126.973839,181.526657 136.612473,186.905655 145.465149,193.641464 
	C151.898209,198.536255 157.916885,203.975677 164.079803,209.762344 
	C153.673477,228.086258 154.311279,246.054672 162.891617,264.192383 
z"></path>
  <path fill="#F38501" opacity="1.000000" stroke="none" d="
M115.771347,178.597839 
	C118.488876,189.126480 120.971809,199.404343 123.392494,209.696854 
	C127.109161,225.499786 136.438797,238.169815 146.170456,250.614594 
	C148.711716,253.864334 151.355972,257.033508 154.017166,260.576782 
	C112.418045,245.039978 91.345406,208.862305 94.373856,172.441223 
	C101.500237,174.434784 108.504547,176.394196 115.771347,178.597839 
z"></path>
  <path fill="#F4C101" opacity="1.000000" stroke="none" d="
M333.908630,209.810486 
	C338.636505,206.487961 343.039978,202.509048 348.159424,199.978836 
	C358.992615,194.624695 370.199615,190.026855 381.610565,185.469635 
	C376.191528,204.925659 369.057434,223.303711 356.482574,239.258896 
	C351.960999,244.995926 348.925903,251.904480 345.212402,258.278381 
	C345.212402,258.278381 345.134308,258.214294 344.928894,258.208069 
	C344.491760,258.432983 344.260040,258.664124 344.028320,258.895294 
	C341.327759,259.937622 338.627197,260.979950 335.671753,261.709595 
	C341.778442,250.175354 340.787292,238.003113 339.279694,226.033310 
	C338.581268,220.488159 335.764832,215.209793 333.908630,209.810486 
z"></path>
  <path fill="#F28501" opacity="1.000000" stroke="none" d="
M345.585938,258.269958 
	C348.925903,251.904480 351.960999,244.995926 356.482574,239.258896 
	C369.057434,223.303711 376.191528,204.925659 381.984558,185.433807 
	C388.027588,182.418549 394.053955,179.789932 400.960266,176.777512 
	C402.126160,185.801529 402.460632,193.606522 400.230743,201.368835 
	C397.629059,210.425354 393.324890,218.570389 387.246063,225.811234 
	C375.739929,239.516800 363.737946,252.552933 345.585938,258.269958 
z"></path>
  <path fill="#766ED7" opacity="1.000000" stroke="none" d="
M172.449463,124.534088 
	C175.649063,113.720154 176.872452,102.665672 183.302063,92.280220 
	C185.019943,95.599670 186.418701,98.139626 187.669937,100.750282 
	C191.694138,109.146675 195.820679,117.499977 199.578094,126.015343 
	C201.099289,129.462769 202.038437,133.241318 202.653351,136.966431 
	C202.825058,138.006668 200.923355,140.434692 199.926697,140.460739 
	C189.833603,140.724380 179.730927,140.621582 169.166107,140.621582 
	C170.369034,134.651062 171.348297,129.790680 172.449463,124.534088 
z"></path>
  <path fill="#766ED7" opacity="1.000000" stroke="none" d="
M345.962738,141.070862 
	C337.752350,141.787354 329.685852,142.215271 321.618195,142.238510 
	C320.451904,142.241882 318.216064,140.240677 318.272339,139.271439 
	C318.973145,127.199150 319.943207,115.140511 321.020569,103.094147 
	C321.187103,101.232109 322.237213,99.449097 322.878693,97.629539 
	C323.505219,97.227562 324.131714,96.825592 324.758240,96.423615 
	C325.292206,97.646553 325.758514,98.904518 326.370605,100.087013 
	C332.546631,112.017998 338.781403,123.918823 344.893616,135.882309 
	C345.621521,137.306946 345.717407,139.054474 345.962738,141.070862 
z"></path>
  <path fill="#F2BF03" opacity="1.000000" stroke="none" d="
M316.960754,266.675781 
	C313.589569,267.445953 310.218414,268.216156 306.287598,268.678894 
	C301.456055,264.576752 297.184143,260.782135 292.912262,256.987488 
	C298.118347,247.432281 303.038574,237.677475 311.783020,230.676300 
	C310.424683,243.317383 311.312378,255.322052 316.960754,266.675781 
z"></path>
  <path fill="#F2BF03" opacity="1.000000" stroke="none" d="
M186.549805,233.597076 
	C192.416595,242.787521 198.283371,251.977982 203.859253,261.684753 
	C198.033081,265.136444 192.497803,268.071808 186.962509,271.007141 
	C184.485764,270.480286 182.009018,269.953400 179.373108,268.910522 
	C181.556839,263.006561 184.828949,257.810028 185.988876,252.178452 
	C187.220291,246.199783 186.447403,239.808289 186.549805,233.597076 
z"></path>
  <path fill="#E63B70" opacity="1.000000" stroke="none" d="
M163.178833,264.432800 
	C154.311279,246.054672 153.673477,228.086258 164.272491,210.044632 
	C165.388062,211.424194 167.217346,213.241180 167.006805,214.778885 
	C164.829498,230.680206 162.733139,246.542801 165.671082,262.594055 
	C165.770004,263.134460 164.237885,263.973450 163.178833,264.432800 
z"></path>
  <path fill="#E13771" opacity="1.000000" stroke="none" d="
M255.234528,270.160004 
	C253.263184,273.625671 251.536240,276.807922 249.151154,281.202972 
	C247.712219,277.584961 246.596634,275.089966 245.719345,272.513794 
	C243.439850,265.820160 242.998413,265.576050 236.678192,268.230042 
	C237.296127,264.506897 239.565216,261.769226 244.196976,261.473297 
	C250.449493,261.073822 256.830414,261.274597 263.041016,262.092743 
	C267.664886,262.701874 269.080963,267.887421 266.565582,272.787598 
	C262.736420,272.379913 260.906891,264.107391 255.234528,270.160004 
z"></path>
  <path fill="#EEEDF0" opacity="1.000000" stroke="none" d="
M180.004333,285.939758 
	C166.111542,282.863861 154.024521,276.906860 143.375412,267.634857 
	C163.955139,274.965881 184.534866,282.296936 205.239227,289.672363 
	C196.536835,291.352539 188.581970,287.846832 180.004333,285.939758 
z"></path>
  <path fill="#EBEAEE" opacity="1.000000" stroke="none" d="
M366.751526,259.881409 
	C382.392639,247.384125 397.877289,235.231506 407.149506,216.632278 
	C409.803131,228.907822 377.025787,262.794922 362.621948,262.850647 
	C364.173279,261.730927 365.311462,260.909424 366.751526,259.881409 
z"></path>
  <path fill="#E53C6F" opacity="1.000000" stroke="none" d="
M333.564941,209.991455 
	C335.764832,215.209793 338.581268,220.488159 339.279694,226.033310 
	C340.787292,238.003113 341.778442,250.175354 335.305176,261.731995 
	C334.328979,262.398285 333.464478,262.729523 332.767883,262.996429 
	C333.542816,254.128632 334.868347,245.459305 334.882324,236.787842 
	C334.893921,229.573990 333.289154,222.365067 332.575470,215.136673 
	C332.415741,213.518967 332.986725,211.829102 333.564941,209.991455 
z"></path>
  <path fill="#E53C6F" opacity="1.000000" stroke="none" d="
M186.445557,233.345963 
	C186.447403,239.808289 187.220291,246.199783 185.988876,252.178452 
	C184.828949,257.810028 181.556839,263.006561 179.062027,268.707947 
	C176.276993,269.156891 175.863312,268.165344 176.712418,265.687378 
	C181.167603,252.685883 182.353348,239.420593 180.092239,225.301865 
	C182.175262,227.899521 184.258301,230.497192 186.445557,233.345963 
z"></path>
  <path fill="#E33D6E" opacity="1.000000" stroke="none" d="
M317.348083,266.711121 
	C311.312378,255.322052 310.424683,243.317383 312.079529,230.526657 
	C313.712036,228.351837 315.342926,226.615662 316.973816,224.879486 
	C317.285828,225.041183 317.597870,225.202881 317.909882,225.364578 
	C317.600159,228.378784 316.852936,231.423676 317.061798,234.401489 
	C317.717957,243.756363 318.690125,253.090500 319.645966,262.421783 
	C319.843597,264.351257 321.099060,266.494385 317.348083,266.711121 
z"></path>
  <path fill="#EE8504" opacity="1.000000" stroke="none" d="
M292.643494,257.187500 
	C297.184143,260.782135 301.456055,264.576752 305.890747,268.665741 
	C299.699585,272.105133 293.199554,271.157532 285.661194,269.592560 
	C288.032684,265.281250 290.203705,261.334381 292.643494,257.187500 
z"></path>
  <path fill="#EE8504" opacity="1.000000" stroke="none" d="
M187.254700,271.232025 
	C192.497803,268.071808 198.033081,265.136444 203.891693,262.049561 
	C205.513031,266.303589 206.811050,270.709137 208.608643,276.810333 
	C200.720490,274.805328 194.133698,273.131134 187.254700,271.232025 
z"></path>
  <path fill="#EBEAEE" opacity="1.000000" stroke="none" d="
M112.951981,249.051743 
	C108.019554,242.806656 103.322083,236.827820 98.624619,230.848969 
	C99.140427,230.412521 99.656227,229.976074 100.172035,229.539627 
	C108.402466,237.218216 115.954224,245.496246 121.885788,255.205368 
	C121.547249,255.575470 121.208717,255.945572 120.870186,256.315674 
	C118.309113,253.983109 115.748032,251.650543 112.951981,249.051743 
z"></path>
  <path fill="#EEEDF0" opacity="1.000000" stroke="none" d="
M314.755066,203.952454 
	C313.229095,204.957657 311.972412,205.709747 310.715729,206.461823 
	C314.996918,196.362381 321.277832,188.345947 331.024841,183.323151 
	C326.264191,190.550247 320.986542,197.381149 314.755066,203.952454 
z"></path>
  <path fill="#E7E5EA" opacity="1.000000" stroke="none" d="
M189.580444,207.444061 
	C186.541260,201.957336 183.713715,196.761765 180.776489,191.364670 
	C186.834488,191.930511 194.101990,204.051300 194.313400,214.366119 
	C192.474030,211.668518 191.133057,209.701859 189.580444,207.444061 
z"></path>
  <path fill="#EAE9ED" opacity="1.000000" stroke="none" d="
M229.128448,360.759216 
	C227.950806,355.864258 226.923721,351.319885 225.896637,346.775543 
	C226.671036,346.551514 227.445419,346.327454 228.219803,346.103424 
	C230.960083,353.346313 233.700348,360.589203 236.440628,367.832092 
	C235.790466,368.172974 235.140320,368.513855 234.490173,368.854706 
	C232.753128,366.273102 231.016068,363.691498 229.128448,360.759216 
z"></path>
  <path fill="#EAE9ED" opacity="1.000000" stroke="none" d="
M265.697998,361.772461 
	C266.530609,354.787323 269.587372,349.283203 274.108032,344.353668 
	C275.949219,349.865997 271.203796,361.302277 266.285553,363.540833 
	C266.070648,363.066162 265.855774,362.591461 265.697998,361.772461 
z"></path>
  <path fill="#E7E5EA" opacity="1.000000" stroke="none" d="
M332.245758,273.165558 
	C336.265320,272.223663 339.902985,271.394531 343.540680,270.565399 
	C343.689270,271.070251 343.837891,271.575134 343.986481,272.079987 
	C336.609406,276.968811 328.072632,278.626160 319.545837,280.311249 
	C319.342041,279.869293 319.138245,279.427338 318.934448,278.985413 
	C323.244263,277.083038 327.554077,275.180695 332.245758,273.165558 
z"></path>
  <path fill="#E5E3E8" opacity="1.000000" stroke="none" d="
M258.239197,358.228394 
	C259.440643,355.444733 260.490601,353.017548 261.972412,349.592102 
	C263.565216,359.320740 259.580811,366.474823 255.725449,373.662506 
	C255.238571,373.555115 254.751709,373.447723 254.264832,373.340332 
	C255.539139,368.421844 256.813446,363.503387 258.239197,358.228394 
z"></path>
  <path fill="#EBEAEE" opacity="1.000000" stroke="none" d="
M267.047546,173.311829 
	C266.404327,178.689941 265.013519,183.264267 260.921783,186.460770 
	C260.461792,186.304886 260.001770,186.148987 259.541748,185.993103 
	C261.445404,179.266541 263.349060,172.539978 265.252716,165.813400 
	C265.863129,165.941177 266.473511,166.068939 267.083923,166.196701 
	C267.083923,168.433792 267.083923,170.670883 267.047546,173.311829 
z"></path>
  <path fill="#E5E3E8" opacity="1.000000" stroke="none" d="
M245.339096,361.673706 
	C246.742798,366.435608 247.981445,370.847137 249.220093,375.258636 
	C241.991974,370.357513 240.718292,363.348511 242.003296,355.229706 
	C243.060211,357.260895 244.117126,359.292114 245.339096,361.673706 
z"></path>
  <path fill="#E3E1E7" opacity="1.000000" stroke="none" d="
M259.398926,218.213501 
	C258.895477,219.605637 258.507080,220.620178 258.004822,221.932022 
	C254.784454,215.316666 255.289642,207.798660 259.192352,200.777145 
	C259.666901,200.807968 260.141449,200.838791 260.615997,200.869614 
	C260.248657,206.525055 259.881287,212.180481 259.398926,218.213501 
z"></path>
  <path fill="#E7E5EA" opacity="1.000000" stroke="none" d="
M243.709991,194.147873 
	C244.093246,190.484360 244.466553,187.239792 244.911423,183.373184 
	C248.973450,190.656494 248.988434,198.828522 244.722076,206.189941 
	C244.324631,201.669876 244.012329,198.118347 243.709991,194.147873 
z"></path>
  <path fill="#E3E1E7" opacity="1.000000" stroke="none" d="
M160.393372,177.984665 
	C166.549118,181.726044 171.753479,185.867111 173.505325,192.919632 
	C173.149933,193.243149 172.794556,193.566681 172.439178,193.890213 
	C167.917175,188.823318 163.395187,183.756424 158.873184,178.689514 
	C159.280853,178.403900 159.688507,178.118301 160.393372,177.984665 
z"></path>
  <path fill="#E5E3E8" opacity="1.000000" stroke="none" d="
M328.574219,176.661407 
	C326.537262,178.170227 324.764191,179.432968 322.991150,180.695709 
	C322.533569,180.153610 322.075958,179.611496 321.618347,179.069382 
	C326.331055,174.472321 331.043762,169.875244 335.756470,165.278183 
	C336.313934,165.799164 336.871399,166.320145 337.428833,166.841125 
	C334.565277,170.032532 331.701691,173.223923 328.574219,176.661407 
z"></path>
  <path fill="#EAE9ED" opacity="1.000000" stroke="none" d="
M243.784897,230.120407 
	C243.690552,226.314194 243.690552,222.918594 243.690552,219.523010 
	C244.307007,219.471008 244.923462,219.419022 245.539917,219.367020 
	C246.271454,224.788223 247.002991,230.209427 247.734528,235.630630 
	C247.073883,235.782745 246.413239,235.934860 245.752594,236.086975 
	C245.128143,234.235001 244.503693,232.383011 243.784897,230.120407 
z"></path>
  <path fill="#E3E1E7" opacity="1.000000" stroke="none" d="
M233.344513,222.475830 
	C232.266495,218.008987 231.366409,213.880341 230.466339,209.751709 
	C231.014465,209.616089 231.562576,209.480469 232.110703,209.344849 
	C235.432312,214.198303 237.016769,219.533035 235.829453,226.590118 
	C234.769333,224.854950 234.145889,223.834503 233.344513,222.475830 
z"></path>
  <path fill="#DFDCE3" opacity="1.000000" stroke="none" d="
M139.453766,279.663208 
	C139.272919,280.356812 138.522018,281.176086 138.485611,281.145477 
	C133.814575,277.218597 129.196045,273.229309 124.574883,269.243134 
	C125.167557,268.572327 125.760231,267.901520 126.352905,267.230743 
	C130.641037,271.284485 134.929184,275.338257 139.453766,279.663208 
z"></path>
  <path fill="#E3E1E7" opacity="1.000000" stroke="none" d="
M460.276672,397.857056 
	C460.024414,393.516815 459.829926,389.624847 459.635437,385.732849 
	C463.345978,391.706360 464.390686,397.834900 460.914642,404.317474 
	C460.721252,402.313446 460.527832,400.309387 460.276672,397.857056 
z"></path>
  <path fill="#DFDCE3" opacity="1.000000" stroke="none" d="
M251.463455,161.319000 
	C250.708679,163.680023 250.058670,165.644684 249.408676,167.609360 
	C248.757660,167.479080 248.106644,167.348816 247.455627,167.218536 
	C248.328308,161.624664 249.200989,156.030792 250.073669,150.436920 
	C250.799805,150.507843 251.525925,150.578751 252.252045,150.649673 
	C252.024109,154.074005 251.796173,157.498337 251.463455,161.319000 
z"></path>
  <path fill="#D6D3DB" opacity="1.000000" stroke="none" d="
M467.771912,377.290283 
	C468.946381,381.210968 469.950256,384.795319 470.954132,388.379639 
	C470.536133,388.521057 470.118164,388.662476 469.700165,388.803894 
	C467.265228,382.985077 464.830322,377.166260 462.395386,371.347443 
	C462.735657,371.100372 463.075958,370.853302 463.416229,370.606232 
	C464.811279,372.722107 466.206299,374.838013 467.771912,377.290283 
z"></path>
  <path fill="#DFDCE3" opacity="1.000000" stroke="none" d="
M358.191467,277.299896 
	C354.234192,278.834229 350.598389,280.188080 346.962585,281.541962 
	C346.714325,280.944550 346.466095,280.347168 346.217865,279.749756 
	C351.454437,277.374115 356.691010,274.998474 361.927582,272.622803 
	C362.192688,273.046539 362.457825,273.470276 362.722931,273.894012 
	C361.319611,274.969177 359.916290,276.044312 358.191467,277.299896 
z"></path>
  <path fill="#EAE9ED" opacity="1.000000" stroke="none" d="
M158.858231,163.112671 
	C165.155884,164.459778 170.725723,169.529984 170.658768,175.432861 
	C166.285812,171.020645 162.667221,167.369553 158.979309,163.397400 
	C158.910004,163.076340 158.858231,163.112671 158.858231,163.112671 
z"></path>
  <path fill="#D6D3DB" opacity="1.000000" stroke="none" d="
M232.364746,172.584564 
	C233.642731,177.747543 234.670364,182.720978 235.697983,187.694412 
	C234.731918,187.822708 233.765854,187.951004 232.799789,188.079300 
	C232.571320,182.851196 232.342850,177.623108 232.364746,172.584564 
z"></path>
  <path fill="#DFDCE3" opacity="1.000000" stroke="none" d="
M355.891876,169.696457 
	C357.048737,169.326477 357.903687,169.162384 358.758636,168.998276 
	C358.975311,169.345718 359.191956,169.693146 359.408600,170.040573 
	C356.064911,172.953247 352.721191,175.865906 349.377502,178.778580 
	C348.897705,178.292480 348.417938,177.806381 347.938171,177.320282 
	C350.488770,174.847641 353.039368,172.374985 355.891876,169.696457 
z"></path>
  <path fill="#D6D3DB" opacity="1.000000" stroke="none" d="
M267.663269,145.694489 
	C268.546417,143.794052 269.307648,142.244278 270.068878,140.694489 
	C270.614349,140.895279 271.159790,141.096069 271.705261,141.296860 
	C270.552399,144.959808 269.399536,148.622742 268.246674,152.285690 
	C267.611115,152.133621 266.975525,151.981567 266.339966,151.829514 
	C266.740448,149.901382 267.140900,147.973251 267.663269,145.694489 
z"></path>
  <path fill="#EAE9ED" opacity="1.000000" stroke="none" d="
M158.936676,163.059341 
	C158.851303,162.940445 158.739243,162.838547 158.627197,162.736649 
	C158.772003,162.755508 158.916794,162.774353 158.959915,162.952942 
	C158.858231,163.112671 158.910004,163.076340 158.936676,163.059341 
z"></path>
  <path fill="#EBEAEE" opacity="1.000000" stroke="none" d="
M362.493225,264.495697 
	C362.511932,264.497528 362.474487,264.493866 362.493225,264.495697 
z"></path>
  <path fill="#E7E5EA" opacity="1.000000" stroke="none" d="
M317.495972,280.506073 
	C317.497192,280.487610 317.494781,280.524536 317.495972,280.506073 
z"></path>
  <path fill="#DFDCE3" opacity="1.000000" stroke="none" d="
M141.495605,282.506775 
	C141.497467,282.488068 141.493759,282.525482 141.495605,282.506775 
z"></path>
  <path fill="#F28501" opacity="1.000000" stroke="none" d="
M344.288635,258.894531 
	C344.260040,258.664124 344.491760,258.432983 344.977478,258.194214 
	C345.003967,258.422333 344.776459,258.658051 344.288635,258.894531 
z"></path>
  <path fill="#EFECF3" opacity="1.000000" stroke="none" d="
M87.406525,241.643372 
	C87.427353,241.854553 87.260559,242.221863 86.981735,242.364899 
	C86.869698,242.140640 87.218895,241.799500 87.406525,241.643372 
z"></path>
  <path fill="#EFECF3" opacity="1.000000" stroke="none" d="
M418.935333,237.959473 
	C418.906616,238.163269 418.910187,238.385361 418.913757,238.607468 
	C418.811127,238.447571 418.708496,238.287674 418.816650,238.074829 
	C419.027405,238.021881 418.967651,237.977783 418.935333,237.959473 
z"></path>
</svg>